# xmcd
#
# Track frame offsets: 
#        150
#        17877
#        38527
#        57099
#        75449
#        94117
#        112044
#        135164
#        156089
#        178562
#        198442
#
# Disc length: 2906 seconds
#
# Revision: 6
# Processed by: cddbd v1.5.2PL0 Copyright (c) Steve Scherf et al.
# Submitted via: ExactAudioCopy v0.99pb5
#
DISCID=7d0b580b
DTITLE=Alvin Lee - Zoom
DYEAR=1992
DGENRE=Blues-Rock
TTITLE0=A Little Bit Of Love
TTITLE1=Real Life Blues
TTITLE2=The Price Of This Love
TTITLE3=Moving The Blues
TTITLE4=Lost In Love
TTITLE5=Wake Up Moma
TTITLE6=It Don't Come Easy
TTITLE7=Remember Me
TTITLE8=Anything For You
TTITLE9=Jenny, Jenny
TTITLE10=Use That Power
EXTD=Seagull 111102-SG\nSeagull Music Scandinavia as, Vettre, Norway\n
EXTD=Alvin Lee, guitar, vocals and drums\nSteve Gould: bass and vocals\nSt
EXTD=eve Grant: bass, vocals and keys\nAlan Young: drums\n\nGuests on vo
EXTD=l 2\nClarence Clemons: tenor sax on 4, 6, 10, 11\nBillie Dixon: b
EXTD=ass on 6\nGeorge Harrison: slide guitar on 2\nJimmie Johnson: pia
EXTD=no on 6\nJohn Lord: Hammond organ on 2, 6\nRichard Newman: drums 
EXTD=on 9, 10, 11\nDeena Payne: backing vocals on 1, 3, 4, 9, 11\nTim 
EXTD=Hinkley: piano on 4\nTim Hinkley: keys and backing vocals on 11\nDo
EXTD=n Reddal: backing vocal on 11
EXTT0=(Alvin Lee)
EXTT1=(Alvin Lee)
EXTT2=(Alvin Lee)
EXTT3=(Alvin Lee)
EXTT4=(Alvin Lee/Steve Gould)
EXTT5=(Alvin Lee)
EXTT6=(Alvin Lee)
EXTT7=(Alvin Lee)
EXTT8=(Alvin Lee/Sideman)
EXTT9=(Alvin Lee/Steve Gould)
EXTT10=(Alvin Lee/Tim Hinkley)
PLAYORDER=
